<svg width="56" height="40" viewBox="0 0 56 40" fill="none" xmlns="http://www.w3.org/2000/svg">
<rect x="0.5" y="0.5" width="55" height="39" rx="9.5" fill="url(#paint0_linear_11922_8100)"/>
<rect x="0.5" y="0.5" width="55" height="39" rx="9.5" stroke="white" style="mix-blend-mode:overlay"/>
<path d="M39.7969 15.4382V26.9583C39.7969 28.3558 38.6599 29.4927 37.2624 29.4927C35.8649 29.4927 34.728 28.3558 34.728 26.9583C34.728 25.5608 35.8649 24.4238 37.2624 24.4238C37.6771 24.4238 38.0685 24.5246 38.4144 24.702V19.9907L29.659 21.9805V29.2623C29.659 30.6598 28.522 31.7968 27.1245 31.7968C25.727 31.7968 24.5901 30.6598 24.5901 29.2623C24.5901 27.8648 25.727 26.7279 27.1245 26.7279C27.5392 26.7279 27.9306 26.8287 28.2765 27.006V17.7423C28.2765 17.4195 28.4999 17.1398 28.8146 17.0682L38.9526 14.7641C39.385 14.6659 39.7969 14.9946 39.7969 15.4382ZM26.8019 8.89469C26.8019 8.445 26.3793 8.115 25.943 8.22414L20.4133 9.60656C20.1055 9.68352 19.8897 9.96 19.8897 10.2771V19.5408C19.5437 19.3634 19.1523 19.2627 18.7376 19.2627C17.3401 19.2627 16.2032 20.3996 16.2032 21.7971C16.2032 23.1946 17.3401 24.3316 18.7376 24.3316C20.1351 24.3316 21.2721 23.1946 21.2721 21.7971V14.5033L22.7019 14.1459C25.1158 13.5424 26.8019 11.383 26.8019 8.89469Z" fill="url(#paint1_linear_11922_8100)"/>
<defs>
<linearGradient id="paint0_linear_11922_8100" x1="28" y1="0" x2="28" y2="40" gradientUnits="userSpaceOnUse">
<stop stop-color="#5D3AD4"/>
<stop offset="1" stop-color="#301E6E"/>
</linearGradient>
<linearGradient id="paint1_linear_11922_8100" x1="28" y1="31.7969" x2="28" y2="8.20313" gradientUnits="userSpaceOnUse">
<stop stop-color="#4EFFA8"/>
<stop offset="1" stop-color="#00B59B"/>
</linearGradient>
</defs>
</svg>
