<svg width="70" height="48" viewBox="0 0 70 48" fill="none" xmlns="http://www.w3.org/2000/svg">
<rect x="0.5" y="0.5" width="69" height="47" rx="9.5" fill="url(#paint0_linear_11909_202)"/>
<rect x="0.5" y="0.5" width="69" height="47" rx="9.5" stroke="white" style="mix-blend-mode:overlay"/>
<g clip-path="url(#clip0_11909_202)">
<path d="M27.9691 9.00024C25.542 9.00024 23.5746 10.9677 23.5746 13.3947V37.242H35.0725C36.2046 38.2865 38.1035 38.9998 39.3947 38.9998C41.3084 38.9998 42.9103 37.4431 42.9103 35.4843V14.2736L46.4258 9.00024H27.9691Z" fill="url(#paint1_linear_11909_202)"/>
<path d="M35.9436 36.1542C35.8663 35.7577 35.5008 35.4843 35.0969 35.4843H20.8793C20.3871 35.4843 20.0004 35.871 20.0004 36.3632C20.0004 37.8221 21.2367 38.9999 22.6957 38.9999H39.3947C37.6901 38.9999 36.2586 37.7702 35.9436 36.1542ZM25.0594 24.314C26.2264 25.4785 27.7671 26.123 29.4059 26.1617L32.5541 29.3092C32.8974 29.6525 33.4535 29.6525 33.7969 29.3092C34.1402 28.9659 34.1402 28.4097 33.7969 28.0664C33.7742 28.0438 25.7323 20.0137 25.6465 19.9281C23.5285 17.8116 21.0122 18.0447 20.8364 18.0121C20.4896 18.0293 20.184 18.249 20.0588 18.5735C19.9335 18.8979 20.0124 19.2661 20.2579 19.5116L25.0594 24.314ZM38.5158 21.3048H33.2424C32.7566 21.3048 32.3635 21.6979 32.3635 22.1837C32.3635 22.6695 32.7566 23.0626 33.2424 23.0626H38.5158C39.0016 23.0626 39.3947 22.6695 39.3947 22.1837C39.3947 21.6979 39.0016 21.3048 38.5158 21.3048ZM46.4258 9.00031C44.4923 9.00031 42.9103 10.5823 42.9103 12.5159V14.2737H49.1211C49.6134 14.2737 50 13.8869 50 13.3948V12.5159C50 10.5668 48.3442 9.00031 46.4258 9.00031ZM38.5158 14.2737H29.7268C29.2411 14.2737 28.848 14.6668 28.848 15.1526C28.848 15.6384 29.2411 16.0315 29.7268 16.0315H38.5158C39.0016 16.0315 39.3947 15.6384 39.3947 15.1526C39.3947 14.6668 39.0016 14.2737 38.5158 14.2737ZM38.5158 17.7892H31.4846C30.9988 17.7892 30.6057 18.1823 30.6057 18.6681C30.6057 19.1539 30.9988 19.547 31.4846 19.547H38.5158C39.0016 19.547 39.3947 19.1539 39.3947 18.6681C39.3947 18.1823 39.0016 17.7892 38.5158 17.7892Z" fill="url(#paint2_linear_11909_202)"/>
</g>
<defs>
<linearGradient id="paint0_linear_11909_202" x1="35" y1="0" x2="35" y2="48" gradientUnits="userSpaceOnUse">
<stop stop-color="#5D3AD4"/>
<stop offset="1" stop-color="#301E6E"/>
</linearGradient>
<linearGradient id="paint1_linear_11909_202" x1="35.0002" y1="38.9998" x2="35.0002" y2="9.00024" gradientUnits="userSpaceOnUse">
<stop stop-color="#00B59C"/>
<stop offset="1" stop-color="#9CFFAC"/>
</linearGradient>
<linearGradient id="paint2_linear_11909_202" x1="35" y1="38.9999" x2="35" y2="9.00031" gradientUnits="userSpaceOnUse">
<stop stop-color="#C3FFE8"/>
<stop offset="0.9973" stop-color="#F0FFF4"/>
</linearGradient>
<clipPath id="clip0_11909_202">
<rect width="30" height="30" fill="white" transform="translate(20 9)"/>
</clipPath>
</defs>
</svg>
