<svg width="56" height="40" viewBox="0 0 56 40" fill="none" xmlns="http://www.w3.org/2000/svg">
<rect x="0.5" y="0.5" width="55" height="39" rx="9.5" fill="url(#paint0_linear_11922_8101)"/>
<rect x="0.5" y="0.5" width="55" height="39" rx="9.5" stroke="white" style="mix-blend-mode:overlay"/>
<path d="M29.0726 7.7555C28.9583 7.70849 28.8327 7.69633 28.7115 7.72056C28.5903 7.74479 28.4791 7.80432 28.3916 7.89166L23.575 12.7083H18.8333C18.0048 12.7094 17.2106 13.0389 16.6247 13.6248C16.0389 14.2106 15.7093 15.0048 15.7083 15.8333V24.1667C15.7093 24.9951 16.0389 25.7894 16.6247 26.3752C17.2106 26.9611 18.0048 27.2906 18.8333 27.2917H23.575L28.3916 32.1083C28.4791 32.1956 28.5904 32.2551 28.7115 32.2791C28.8327 32.3032 28.9583 32.2908 29.0724 32.2436C29.1866 32.1963 29.2841 32.1163 29.3528 32.0136C29.4215 31.9109 29.4582 31.7902 29.4583 31.6667V8.33333C29.4584 8.20966 29.4218 8.08874 29.3531 7.98588C29.2845 7.88302 29.1868 7.80284 29.0726 7.7555Z" fill="url(#paint1_linear_11922_8101)"/>
<path d="M37.5215 12.9142C37.4096 12.7962 37.2561 12.7265 37.0936 12.7198C36.9311 12.7132 36.7724 12.7701 36.6512 12.8786C36.53 12.9871 36.4558 13.1385 36.4445 13.3008C36.4332 13.463 36.4856 13.6233 36.5905 13.7476C38.156 15.4535 39.0246 17.6846 39.0246 20C39.0246 22.3154 38.156 24.5465 36.5905 26.2524C36.533 26.3131 36.4882 26.3846 36.4588 26.4629C36.4295 26.5412 36.4161 26.6245 36.4195 26.708C36.4229 26.7916 36.4431 26.8735 36.4788 26.9491C36.5144 27.0247 36.5649 27.0924 36.6272 27.1482C36.6895 27.2039 36.7623 27.2466 36.8414 27.2737C36.9204 27.3008 37.0041 27.3118 37.0875 27.306C37.1709 27.3001 37.2523 27.2777 37.3268 27.2398C37.4014 27.202 37.4676 27.1496 37.5215 27.0857C39.2958 25.1525 40.2803 22.624 40.2803 20C40.2803 17.376 39.2958 14.8475 37.5215 12.9142Z" fill="url(#paint2_linear_11922_8101)"/>
<path d="M34.8261 14.5825C34.7722 14.5186 34.706 14.4662 34.6315 14.4284C34.5569 14.3906 34.4755 14.3681 34.3922 14.3623C34.3088 14.3565 34.2251 14.3674 34.146 14.3945C34.0669 14.4216 33.9941 14.4643 33.9318 14.5201C33.8695 14.5758 33.819 14.6435 33.7834 14.7191C33.7477 14.7947 33.7276 14.8767 33.7242 14.9602C33.7207 15.0437 33.7341 15.1271 33.7635 15.2053C33.7928 15.2836 33.8376 15.3552 33.8951 15.4158C35.0601 16.658 35.7085 18.297 35.7085 20C35.7085 21.703 35.0601 23.342 33.8951 24.5842C33.8404 24.6453 33.7982 24.7166 33.7711 24.794C33.7439 24.8714 33.7323 24.9534 33.7368 25.0353C33.7413 25.1172 33.762 25.1975 33.7975 25.2714C33.833 25.3453 33.8828 25.4116 33.944 25.4663C34.0682 25.575 34.2301 25.6308 34.395 25.6217C34.5599 25.6126 34.7146 25.5393 34.8261 25.4175C36.2029 23.9496 36.9691 22.0125 36.9691 20C36.9691 17.9875 36.2029 16.0505 34.8261 14.5825Z" fill="url(#paint3_linear_11922_8101)"/>
<path d="M31.2487 16.2012C31.1253 16.3117 31.0509 16.4668 31.0417 16.6322C31.0326 16.7976 31.0895 16.9599 31.2 17.0833C31.952 17.8681 32.3719 18.9131 32.3719 20C32.3719 21.0869 31.952 22.1319 31.2 22.9167C31.1425 22.9773 31.0977 23.0489 31.0683 23.1272C31.039 23.2054 31.0256 23.2888 31.029 23.3723C31.0324 23.4558 31.0526 23.5378 31.0882 23.6134C31.1239 23.689 31.1744 23.7567 31.2367 23.8124C31.2989 23.8682 31.3718 23.9109 31.4509 23.938C31.5299 23.9651 31.6136 23.976 31.697 23.9702C31.7804 23.9644 31.8618 23.9419 31.9363 23.9041C32.0109 23.8663 32.0771 23.8139 32.131 23.75C33.0839 22.7338 33.6142 21.393 33.6142 20C33.6142 18.607 33.0839 17.2662 32.131 16.25C32.0763 16.1888 32.0101 16.1389 31.9362 16.1033C31.8622 16.0677 31.7819 16.047 31.7 16.0425C31.618 16.0379 31.5359 16.0496 31.4585 16.0768C31.3811 16.1041 31.3098 16.1463 31.2487 16.2012Z" fill="url(#paint4_linear_11922_8101)"/>
<defs>
<linearGradient id="paint0_linear_11922_8101" x1="28" y1="0" x2="28" y2="40" gradientUnits="userSpaceOnUse">
<stop stop-color="#5D3AD4"/>
<stop offset="1" stop-color="#301E6E"/>
</linearGradient>
<linearGradient id="paint1_linear_11922_8101" x1="22.5833" y1="7.35833" x2="22.5833" y2="30.7783" gradientUnits="userSpaceOnUse">
<stop stop-color="#18C19F"/>
<stop offset="1" stop-color="#8BF3AF"/>
</linearGradient>
<linearGradient id="paint2_linear_11922_8101" x1="38.3558" y1="7.35833" x2="38.3558" y2="30.7783" gradientUnits="userSpaceOnUse">
<stop stop-color="#18C19F"/>
<stop offset="1" stop-color="#8BF3AF"/>
</linearGradient>
<linearGradient id="paint3_linear_11922_8101" x1="35.3525" y1="7.35833" x2="35.3525" y2="30.7783" gradientUnits="userSpaceOnUse">
<stop stop-color="#18C19F"/>
<stop offset="1" stop-color="#8BF3AF"/>
</linearGradient>
<linearGradient id="paint4_linear_11922_8101" x1="32.3275" y1="7.35833" x2="32.3275" y2="30.7783" gradientUnits="userSpaceOnUse">
<stop stop-color="#18C19F"/>
<stop offset="1" stop-color="#8BF3AF"/>
</linearGradient>
</defs>
</svg>
