<svg width="100" height="100" viewBox="0 0 100 100" fill="none" xmlns="http://www.w3.org/2000/svg">
<rect width="100" height="100" rx="24" fill="#301E6E"/>
<path d="M33.2961 51.8299C33.5188 50.5829 33.9568 49.4769 34.6099 48.512C35.278 47.5471 36.087 46.8048 37.0371 46.2852C37.9872 45.7656 38.9892 45.5059 40.0432 45.5059C40.9636 45.5059 41.7356 45.6914 42.3591 46.0626C42.9974 46.4337 43.465 46.9013 43.762 47.4654L44.0737 45.7063H47.2134L45.0312 58.0426H41.8915L42.2255 56.2389C41.7356 56.8178 41.0973 57.3003 40.3105 57.6863C39.5385 58.0574 38.6923 58.243 37.7719 58.243C36.8664 58.243 36.0648 58.0426 35.367 57.6417C34.6693 57.2261 34.1275 56.6471 33.7415 55.9049C33.3555 55.1478 33.1625 54.2719 33.1625 53.2773C33.1625 52.8171 33.2071 52.3346 33.2961 51.8299ZM42.9826 51.8744C43.042 51.4884 43.0717 51.2064 43.0717 51.0282C43.0717 50.1524 42.8119 49.4695 42.2923 48.9796C41.7875 48.4897 41.1492 48.2448 40.3773 48.2448C39.7983 48.2448 39.2342 48.3858 38.6849 48.6679C38.1505 48.9499 37.6829 49.3656 37.2821 49.9149C36.8812 50.4493 36.614 51.0876 36.4804 51.8299C36.4359 52.1119 36.4136 52.3791 36.4136 52.6315C36.4136 53.5222 36.666 54.2274 37.1707 54.7469C37.6755 55.2517 38.3138 55.504 39.0857 55.504C39.6647 55.504 40.2288 55.363 40.7781 55.081C41.3274 54.7841 41.795 54.361 42.1809 53.8117C42.5818 53.2624 42.849 52.6167 42.9826 51.8744Z" fill="white"/>
<path d="M34.3159 41.5645L31.3988 58.0426H28.2591L31.1762 41.5645H34.3159Z" fill="white"/>
<path d="M14.9515 51.8299C15.1742 50.5829 15.6121 49.4769 16.2653 48.512C16.9334 47.5471 17.7424 46.8048 18.6925 46.2852C19.6426 45.7656 20.6446 45.5059 21.6986 45.5059C22.619 45.5059 23.391 45.6914 24.0145 46.0626C24.6528 46.4337 25.1204 46.9013 25.4173 47.4654L25.7291 45.7063H28.8688L26.6866 58.0426H23.5469L23.8809 56.2389C23.391 56.8178 22.7526 57.3003 21.9659 57.6863C21.1939 58.0574 20.3477 58.243 19.4273 58.243C18.5218 58.243 17.7202 58.0426 17.0224 57.6417C16.3247 57.2261 15.7829 56.6471 15.3969 55.9049C15.0109 55.1478 14.8179 54.2719 14.8179 53.2773C14.8179 52.8171 14.8625 52.3346 14.9515 51.8299ZM24.638 51.8744C24.6974 51.4884 24.727 51.2064 24.727 51.0282C24.727 50.1524 24.4673 49.4695 23.9477 48.9796C23.4429 48.4897 22.8046 48.2448 22.0327 48.2448C21.4537 48.2448 20.8896 48.3858 20.3403 48.6679C19.8059 48.9499 19.3383 49.3656 18.9375 49.9149C18.5366 50.4493 18.2694 51.0876 18.1358 51.8299C18.0913 52.1119 18.069 52.3791 18.069 52.6315C18.069 53.5222 18.3214 54.2274 18.8261 54.7469C19.3308 55.2517 19.9692 55.504 20.7411 55.504C21.3201 55.504 21.8842 55.363 22.4335 55.081C22.9827 54.7841 23.4504 54.361 23.8363 53.8117C24.2372 53.2624 24.5044 52.6167 24.638 51.8744Z" fill="white"/>
<path d="M15.9712 41.5645L13.0542 58.0426H9.91443L12.8315 41.5645H15.9712Z" fill="white"/>
<path d="M85.495 45.7731L86.0294 42.7224L83.2014 44.2477L82.9342 45.7731L82.5556 47.844H85.1164H88.1003L88.4566 45.7731H85.495Z" fill="#0AFE87"/>
<path d="M83.8694 55.0364C83.8694 54.9771 83.8843 54.8435 83.914 54.6356L84.853 49.3318L82.5556 47.844L81.3532 54.6356C81.2938 54.9325 81.2641 55.2443 81.2641 55.5709C81.2641 56.4319 81.5239 57.0628 82.0435 57.4636C82.563 57.8496 83.3127 58.0426 84.2925 58.0426H86.2966L86.6751 55.9271H85.1164C84.6711 55.9271 84.3519 55.8603 84.1589 55.7267C83.9659 55.5783 83.8694 55.3482 83.8694 55.0364Z" fill="#0AFE87"/>
<path fill-rule="evenodd" clip-rule="evenodd" d="M75.562 45.5727C77.0911 45.5727 78.3084 46.0032 79.2139 46.8642C80.1343 47.7252 80.5945 48.8831 80.5945 50.3379C80.5945 50.6794 80.5574 51.0876 80.4832 51.5627C80.4238 51.8893 80.3199 52.2901 80.1714 52.7651H70.7967C70.7819 52.869 70.7745 53.0249 70.7745 53.2327C70.7745 54.1086 71.0417 54.8063 71.5761 55.3259C72.1254 55.8455 72.8379 56.1053 73.7138 56.1053C75.0944 56.1053 76.1558 55.5337 76.8981 54.3907L78.5954 55.9271C78.1786 56.3933 77.6945 56.809 77.143 57.1741C76.0445 57.8867 74.7752 58.243 73.3352 58.243C72.3109 58.243 71.4128 58.0426 70.6408 57.6417C69.8689 57.2409 69.2677 56.6694 68.8372 55.9271C68.4067 55.17 68.1914 54.2867 68.1914 53.2773C68.1914 52.8468 68.2359 52.3866 68.325 51.8967C68.5477 50.6348 69.0005 49.5289 69.6833 48.5788C70.3662 47.6139 71.2124 46.8716 72.2219 46.352C73.2462 45.8325 74.3596 45.5727 75.562 45.5727ZM77.9892 50.3602C77.9892 50.479 77.9743 50.672 77.9446 50.9392H71.1307C71.398 49.9445 71.8953 49.1578 72.6227 48.5788C73.3501 47.9998 74.1666 47.7104 75.0721 47.7104C75.9331 47.7104 76.6309 47.9479 77.1653 48.4229C77.7145 48.898 77.9892 49.5437 77.9892 50.3602Z" fill="#0AFE87"/>
<path d="M58.8474 47.599C59.3818 47.0052 60.0573 46.5228 60.8738 46.1516C61.6903 45.7657 62.5587 45.5727 63.4791 45.5727C64.4292 45.5727 65.2605 45.7731 65.9731 46.1739C66.7005 46.5747 67.2646 47.1462 67.6654 47.8885C68.0662 48.6159 68.2667 49.4769 68.2667 50.4716C68.2667 50.9021 68.2221 51.3623 68.133 51.8521C67.9104 53.0843 67.4576 54.1903 66.7747 55.17C66.1067 56.135 65.2828 56.8921 64.303 57.4413C63.3381 57.9758 62.3212 58.243 61.2523 58.243C60.3022 58.243 59.4932 58.0574 58.8252 57.6863C58.1571 57.3152 57.6524 56.8401 57.311 56.2611L56.9992 58.0426H54.4607L57.3778 41.5645H59.9163L58.8474 47.599ZM65.55 51.8521C65.6094 51.5701 65.6391 51.2658 65.6391 50.9392C65.6391 49.9446 65.3422 49.1726 64.7484 48.6233C64.1694 48.0592 63.4346 47.7772 62.5439 47.7772C61.9055 47.7772 61.2672 47.9405 60.6288 48.2671C60.0053 48.5936 59.4635 49.0687 59.0033 49.6922C58.5431 50.3157 58.2388 51.0505 58.0903 51.8967C58.0309 52.1787 58.0013 52.4831 58.0013 52.8097C58.0013 53.8043 58.2907 54.5911 58.8697 55.17C59.4635 55.749 60.1983 56.0385 61.0742 56.0385C61.7274 56.0385 62.3657 55.8752 62.9892 55.5486C63.6276 55.2071 64.1768 54.7173 64.637 54.0789C65.0972 53.4406 65.4015 52.6983 65.55 51.8521Z" fill="#0AFE87"/>
<path d="M50.5325 53.659C50.0426 53.659 49.6492 53.518 49.3523 53.236C49.0554 52.9539 48.907 52.5976 48.907 52.1671C48.907 51.5733 49.1297 51.0686 49.575 50.6529C50.0352 50.2224 50.5696 50.0071 51.1783 50.0071C51.6682 50.0071 52.0541 50.1482 52.3362 50.4302C52.6331 50.6974 52.7816 51.0537 52.7816 51.4991C52.7816 52.0929 52.5589 52.605 52.1135 53.0355C51.6682 53.4512 51.1412 53.659 50.5325 53.659Z" fill="#0AFE87"/>
<path d="M88.8244 43.8109L88.4236 45.7739H90.5992L91 43.8109H88.8244Z" fill="#0AFE87"/>
</svg>
