<svg width="20" height="20" viewBox="0 0 20 20" fill="none" xmlns="http://www.w3.org/2000/svg">
<path d="M10 0C4.48642 0 0 4.48589 0 10C0 15.5136 4.48642 20 10 20C15.5136 20 20 15.5136 20 10C20 4.48589 15.5136 0 10 0ZM13.7431 5.4245L14.5749 4.59272C14.8047 4.36291 15.177 4.36291 15.4067 4.59272C15.6365 4.82245 15.6365 5.1947 15.4067 5.4245L14.5749 6.25629C14.3452 6.48603 13.9729 6.48609 13.7431 6.25629C13.5133 6.02649 13.5133 5.6543 13.7431 5.4245ZM9.41179 2.94119C9.41179 2.61609 9.6749 2.35298 10 2.35298C10.3251 2.35298 10.5882 2.61609 10.5882 2.94119V4.11768C10.5882 4.44278 10.3251 4.70589 10 4.70589C9.6749 4.70589 9.41179 4.44278 9.41179 4.11768V2.94119ZM2.94119 10.5882C2.61603 10.5882 2.35298 10.3251 2.35298 10C2.35298 9.6749 2.61609 9.41179 2.94119 9.41179H4.11768C4.44285 9.41179 4.70589 9.6749 4.70589 10C4.70589 10.3251 4.44278 10.5882 4.11768 10.5882H2.94119ZM6.25689 14.5749L5.4251 15.4067C5.1953 15.6364 4.82305 15.6365 4.59331 15.4067C4.36351 15.1769 4.36351 14.8046 4.59331 14.5749L5.4251 13.7431C5.6549 13.5133 6.02709 13.5133 6.25689 13.7431C6.48669 13.9728 6.48669 14.3451 6.25689 14.5749ZM6.25689 6.25629C6.02715 6.48603 5.6549 6.48609 5.4251 6.25629L4.59331 5.4245C4.36351 5.1947 4.36351 4.82245 4.59331 4.59272C4.82311 4.36291 5.19536 4.36291 5.4251 4.59272L6.25689 5.4245C6.48669 5.6543 6.48669 6.02656 6.25689 6.25629ZM10.5882 17.0588C10.5882 17.384 10.3251 17.6471 10 17.6471C9.6749 17.6471 9.41179 17.384 9.41179 17.0588V15.8823C9.41179 15.5572 9.6749 15.2941 10 15.2941C10.3251 15.2941 10.5882 15.5572 10.5882 15.8823V17.0588ZM12.3529 10.5882H10C9.67483 10.5882 9.41179 10.3251 9.41179 10V6.4706C9.41179 6.1455 9.6749 5.88238 10 5.88238C10.3251 5.88238 10.5882 6.1455 10.5882 6.4706V9.41179H12.3529C12.6781 9.41179 12.9411 9.6749 12.9411 10C12.9411 10.3251 12.6781 10.5882 12.3529 10.5882ZM15.4067 15.4067C15.1769 15.6364 14.8047 15.6365 14.5749 15.4067L13.7431 14.5749C13.5133 14.3451 13.5133 13.9728 13.7431 13.7431C13.9729 13.5133 14.3451 13.5133 14.5749 13.7431L15.4067 14.5749C15.6365 14.8047 15.6365 15.177 15.4067 15.4067ZM17.0588 10.5882H15.8823C15.5572 10.5882 15.2941 10.3251 15.2941 10C15.2941 9.6749 15.5572 9.41179 15.8823 9.41179H17.0588C17.384 9.41179 17.647 9.6749 17.647 10C17.647 10.3251 17.384 10.5882 17.0588 10.5882Z" fill="url(#paint0_linear_11921_3184)"/>
<defs>
<linearGradient id="paint0_linear_11921_3184" x1="10" y1="20" x2="10" y2="0" gradientUnits="userSpaceOnUse">
<stop stop-color="#EBFF00"/>
<stop offset="1" stop-color="#E900FD"/>
</linearGradient>
</defs>
</svg>
