<svg width="250" height="116" viewBox="0 0 250 116" fill="none" xmlns="http://www.w3.org/2000/svg">
<path d="M121.515 6.1823C123.045 3.46773 126.955 3.46772 128.485 6.1823L142.511 31.0668C143.081 32.0795 144.064 32.7938 145.204 33.0237L173.205 38.6734C176.259 39.2897 177.467 43.0075 175.358 45.3015L156.026 66.3307C155.239 67.1865 154.864 68.3422 154.997 69.497L158.277 97.8732C158.635 100.969 155.472 103.266 152.639 101.97L126.665 90.0819C125.608 89.5981 124.392 89.5981 123.335 90.0819L97.3614 101.97C94.528 103.266 91.3655 100.969 91.7232 97.8732L95.0027 69.497C95.1362 68.3422 94.7607 67.1865 93.9739 66.3307L74.6416 45.3015C72.5327 43.0075 73.7407 39.2897 76.7952 38.6734L104.796 33.0237C105.936 32.7938 106.919 32.0795 107.489 31.0668L121.515 6.1823Z" fill="url(#paint0_linear_11921_4763)"/>
<path d="M124.129 10.5456C124.511 9.86693 125.489 9.86693 125.871 10.5456L140.328 36.1947C140.471 36.4479 140.717 36.6264 141.001 36.6839L169.863 42.5073C170.626 42.6613 170.928 43.5908 170.401 44.1643L150.475 65.8397C150.278 66.0536 150.184 66.3425 150.217 66.6312L153.598 95.8794C153.687 96.6533 152.897 97.2277 152.188 96.9035L125.416 84.6505C125.152 84.5295 124.848 84.5295 124.584 84.6505L97.8118 96.9035C97.1034 97.2277 96.3128 96.6533 96.4022 95.8794L99.7825 66.6312C99.8159 66.3425 99.722 66.0536 99.5253 65.8397L79.599 44.1643C79.0717 43.5908 79.3737 42.6613 80.1374 42.5073L108.999 36.6839C109.283 36.6264 109.529 36.4479 109.672 36.1947L124.129 10.5456Z" fill="url(#paint1_linear_11921_4763)"/>
<path d="M124.129 16.5456C124.511 15.8669 125.489 15.8669 125.871 16.5456L138.424 38.8159C138.566 39.0691 138.812 39.2477 139.097 39.3051L164.156 44.3614C164.92 44.5154 165.222 45.4449 164.695 46.0184L147.393 64.8384C147.197 65.0524 147.103 65.3413 147.136 65.63L150.071 91.0253C150.161 91.7992 149.37 92.3736 148.662 92.0494L125.416 81.4105C125.152 81.2895 124.848 81.2895 124.584 81.4105L101.338 92.0494C100.63 92.3736 99.8395 91.7992 99.9289 91.0253L102.864 65.63C102.897 65.3413 102.803 65.0524 102.607 64.8384L85.3053 46.0184C84.7781 45.4449 85.0801 44.5154 85.8437 44.3614L110.903 39.3051C111.188 39.2477 111.434 39.0691 111.576 38.8159L124.129 16.5456Z" fill="url(#paint2_linear_11921_4763)"/>
<path d="M35.717 44.0505C36.7194 42.272 39.2806 42.272 40.283 44.0505L49.4724 60.3541C49.8464 61.0176 50.4905 61.4856 51.2371 61.6362L69.5824 65.3377C71.5837 65.7415 72.3751 68.1773 70.9934 69.6803L58.3274 83.458C57.812 84.0187 57.5659 84.7759 57.6534 85.5325L59.802 104.124C60.0364 106.152 57.9644 107.657 56.108 106.808L39.0906 99.0192C38.3981 98.7022 37.6019 98.7022 36.9094 99.0192L19.892 106.808C18.0356 107.657 15.9636 106.152 16.198 104.124L18.3466 85.5325C18.4341 84.7759 18.188 84.0187 17.6726 83.458L5.00659 69.6803C3.62489 68.1773 4.41633 65.7415 6.41757 65.3377L24.7629 61.6362C25.5095 61.4856 26.1536 61.0176 26.5276 60.3541L35.717 44.0505Z" fill="url(#paint3_linear_11921_4763)"/>
<path d="M37.4292 46.9092C37.6798 46.4646 38.3201 46.4646 38.5707 46.9092L48.0425 63.7138C48.136 63.8797 48.297 63.9967 48.4836 64.0344L67.3927 67.8496C67.893 67.9506 68.0909 68.5595 67.7454 68.9353L54.6903 83.1364C54.5614 83.2766 54.4999 83.4659 54.5217 83.655L56.7364 102.818C56.795 103.325 56.277 103.701 55.8129 103.489L38.2726 95.4607C38.0995 95.3815 37.9004 95.3815 37.7273 95.4607L20.187 103.489C19.7229 103.701 19.2049 103.325 19.2635 102.818L21.4781 83.655C21.5 83.4659 21.4385 83.2766 21.3096 83.1364L8.25442 68.9353C7.909 68.5595 8.10686 67.9506 8.60717 67.8496L27.5162 64.0344C27.7029 63.9967 27.8639 63.8797 27.9574 63.7138L37.4292 46.9092Z" fill="url(#paint4_linear_11921_4763)"/>
<path d="M37.4293 50.8403C37.6799 50.3956 38.3202 50.3956 38.5708 50.8403L46.7948 65.4312C46.8883 65.597 47.0494 65.714 47.236 65.7517L63.6542 69.0644C64.1545 69.1653 64.3523 69.7743 64.0069 70.15L52.6715 82.4804C52.5426 82.6206 52.4811 82.8099 52.503 82.999L54.4259 99.6373C54.4845 100.144 53.9665 100.521 53.5024 100.308L38.2727 93.3379C38.0996 93.2587 37.9005 93.2587 37.7274 93.3379L22.4977 100.308C22.0336 100.521 21.5156 100.144 21.5742 99.6373L23.4971 82.999C23.519 82.8099 23.4575 82.6206 23.3286 82.4804L11.9932 70.15C11.6478 69.7743 11.8456 69.1653 12.3459 69.0644L28.7641 65.7517C28.9507 65.714 29.1118 65.597 29.2052 65.4312L37.4293 50.8403Z" fill="url(#paint5_linear_11921_4763)"/>
<path d="M209.717 44.0505C210.719 42.272 213.281 42.272 214.283 44.0505L223.472 60.3541C223.846 61.0176 224.491 61.4856 225.237 61.6362L243.582 65.3377C245.584 65.7415 246.375 68.1773 244.993 69.6803L232.327 83.458C231.812 84.0187 231.566 84.7759 231.653 85.5325L233.802 104.124C234.036 106.152 231.964 107.657 230.108 106.808L213.091 99.0192C212.398 98.7022 211.602 98.7022 210.909 99.0192L193.892 106.808C192.036 107.657 189.964 106.152 190.198 104.124L192.347 85.5325C192.434 84.7759 192.188 84.0187 191.673 83.458L179.007 69.6803C177.625 68.1773 178.416 65.7415 180.418 65.3377L198.763 61.6362C199.509 61.4856 200.154 61.0176 200.528 60.3541L209.717 44.0505Z" fill="url(#paint6_linear_11921_4763)"/>
<path d="M211.429 46.9092C211.68 46.4646 212.32 46.4646 212.571 46.9092L222.042 63.7138C222.136 63.8797 222.297 63.9967 222.484 64.0344L241.393 67.8496C241.893 67.9506 242.091 68.5595 241.745 68.9353L228.69 83.1364C228.561 83.2766 228.5 83.4659 228.522 83.655L230.736 102.818C230.795 103.325 230.277 103.701 229.813 103.489L212.273 95.4607C212.099 95.3815 211.9 95.3815 211.727 95.4607L194.187 103.489C193.723 103.701 193.205 103.325 193.263 102.818L195.478 83.655C195.5 83.4659 195.438 83.2766 195.31 83.1364L182.254 68.9353C181.909 68.5595 182.107 67.9506 182.607 67.8496L201.516 64.0344C201.703 63.9967 201.864 63.8797 201.957 63.7138L211.429 46.9092Z" fill="url(#paint7_linear_11921_4763)"/>
<path d="M211.429 50.8403C211.68 50.3956 212.32 50.3956 212.571 50.8403L220.795 65.4312C220.888 65.597 221.049 65.714 221.236 65.7517L237.654 69.0644C238.154 69.1653 238.352 69.7743 238.007 70.15L226.672 82.4804C226.543 82.6206 226.481 82.8099 226.503 82.999L228.426 99.6373C228.485 100.144 227.967 100.521 227.502 100.308L212.273 93.3379C212.1 93.2587 211.901 93.2587 211.727 93.3379L196.498 100.308C196.034 100.521 195.516 100.144 195.574 99.6373L197.497 82.999C197.519 82.8099 197.457 82.6206 197.329 82.4804L185.993 70.15C185.648 69.7743 185.846 69.1653 186.346 69.0644L202.764 65.7517C202.951 65.714 203.112 65.597 203.205 65.4312L211.429 50.8403Z" fill="url(#paint8_linear_11921_4763)"/>
<defs>
<linearGradient id="paint0_linear_11921_4763" x1="125" y1="0" x2="125" y2="116" gradientUnits="userSpaceOnUse">
<stop stop-color="#FFBD01"/>
<stop offset="0.445" stop-color="#FFF500"/>
<stop offset="1" stop-color="#D06C01"/>
</linearGradient>
<linearGradient id="paint1_linear_11921_4763" x1="125" y1="9" x2="125" y2="107" gradientUnits="userSpaceOnUse">
<stop stop-color="#F87700"/>
<stop offset="0.445" stop-color="#FFD600"/>
<stop offset="1" stop-color="#FFE600"/>
</linearGradient>
<linearGradient id="paint2_linear_11921_4763" x1="125" y1="15" x2="125" y2="101" gradientUnits="userSpaceOnUse">
<stop stop-color="#F8DF00"/>
<stop offset="0.445" stop-color="#F9A82D"/>
<stop offset="1" stop-color="#FFC24B"/>
</linearGradient>
<linearGradient id="paint3_linear_11921_4763" x1="38" y1="40" x2="38" y2="116" gradientUnits="userSpaceOnUse">
<stop stop-color="#FFBD01"/>
<stop offset="0.445" stop-color="#FFF500"/>
<stop offset="1" stop-color="#D06C01"/>
</linearGradient>
<linearGradient id="paint4_linear_11921_4763" x1="37.9999" y1="45.8966" x2="37.9999" y2="110.104" gradientUnits="userSpaceOnUse">
<stop stop-color="#F87700"/>
<stop offset="0.445" stop-color="#FFD600"/>
<stop offset="1" stop-color="#FFE600"/>
</linearGradient>
<linearGradient id="paint5_linear_11921_4763" x1="38" y1="49.8276" x2="38" y2="106.172" gradientUnits="userSpaceOnUse">
<stop stop-color="#F8DF00"/>
<stop offset="0.445" stop-color="#F9A82D"/>
<stop offset="1" stop-color="#FFC24B"/>
</linearGradient>
<linearGradient id="paint6_linear_11921_4763" x1="212" y1="40" x2="212" y2="116" gradientUnits="userSpaceOnUse">
<stop stop-color="#FFBD01"/>
<stop offset="0.445" stop-color="#FFF500"/>
<stop offset="1" stop-color="#D06C01"/>
</linearGradient>
<linearGradient id="paint7_linear_11921_4763" x1="212" y1="45.8966" x2="212" y2="110.104" gradientUnits="userSpaceOnUse">
<stop stop-color="#F87700"/>
<stop offset="0.445" stop-color="#FFD600"/>
<stop offset="1" stop-color="#FFE600"/>
</linearGradient>
<linearGradient id="paint8_linear_11921_4763" x1="212" y1="49.8276" x2="212" y2="106.172" gradientUnits="userSpaceOnUse">
<stop stop-color="#F8DF00"/>
<stop offset="0.445" stop-color="#F9A82D"/>
<stop offset="1" stop-color="#FFC24B"/>
</linearGradient>
</defs>
</svg>
