<svg width="270" height="132" viewBox="0 0 270 132" fill="none" xmlns="http://www.w3.org/2000/svg">
<g style="mix-blend-mode:plus-lighter" filter="url(#filter0_f_11922_8227)">
<path d="M131.515 16.1823C133.045 13.4677 136.955 13.4677 138.485 16.1823L152.511 41.0668C153.081 42.0795 154.064 42.7938 155.204 43.0237L183.205 48.6734C186.259 49.2897 187.467 53.0075 185.358 55.3015L166.026 76.3307C165.239 77.1865 164.864 78.3422 164.997 79.497L168.277 107.873C168.635 110.969 165.472 113.266 162.639 111.97L136.665 100.082C135.608 99.5981 134.392 99.5981 133.335 100.082L107.361 111.97C104.528 113.266 101.365 110.969 101.723 107.873L105.003 79.497C105.136 78.3422 104.761 77.1865 103.974 76.3307L84.6416 55.3015C82.5327 53.0075 83.7407 49.2897 86.7952 48.6734L114.796 43.0237C115.936 42.7938 116.919 42.0795 117.489 41.0668L131.515 16.1823Z" fill="url(#paint0_linear_11922_8227)"/>
<path d="M134.129 20.5456C134.511 19.8669 135.489 19.8669 135.871 20.5456L150.328 46.1947C150.471 46.4479 150.717 46.6264 151.001 46.6839L179.863 52.5073C180.626 52.6613 180.928 53.5908 180.401 54.1643L160.475 75.8397C160.278 76.0536 160.184 76.3425 160.217 76.6312L163.598 105.879C163.687 106.653 162.897 107.228 162.188 106.903L135.416 94.6505C135.152 94.5295 134.848 94.5295 134.584 94.6505L107.812 106.903C107.103 107.228 106.313 106.653 106.402 105.879L109.782 76.6312C109.816 76.3425 109.722 76.0536 109.525 75.8397L89.599 54.1643C89.0717 53.5908 89.3737 52.6613 90.1374 52.5073L118.999 46.6839C119.283 46.6264 119.529 46.4479 119.672 46.1947L134.129 20.5456Z" fill="url(#paint1_linear_11922_8227)"/>
<path d="M134.129 26.5456C134.511 25.8669 135.489 25.8669 135.871 26.5456L148.424 48.8159C148.566 49.0691 148.812 49.2477 149.097 49.3051L174.156 54.3614C174.92 54.5154 175.222 55.4449 174.695 56.0184L157.393 74.8384C157.197 75.0524 157.103 75.3413 157.136 75.63L160.071 101.025C160.161 101.799 159.37 102.374 158.662 102.049L135.416 91.4105C135.152 91.2895 134.848 91.2895 134.584 91.4105L111.338 102.049C110.63 102.374 109.839 101.799 109.929 101.025L112.864 75.63C112.897 75.3413 112.803 75.0524 112.607 74.8384L95.3053 56.0184C94.7781 55.4449 95.0801 54.5154 95.8437 54.3614L120.903 49.3051C121.188 49.2477 121.434 49.0691 121.576 48.8159L134.129 26.5456Z" fill="url(#paint2_linear_11922_8227)"/>
<path d="M45.717 54.0505C46.7194 52.272 49.2806 52.272 50.283 54.0505L59.4724 70.3541C59.8464 71.0176 60.4905 71.4856 61.2371 71.6362L79.5824 75.3377C81.5837 75.7415 82.3751 78.1773 80.9934 79.6803L68.3274 93.458C67.812 94.0187 67.5659 94.7759 67.6534 95.5325L69.802 114.124C70.0364 116.152 67.9644 117.657 66.108 116.808L49.0906 109.019C48.3981 108.702 47.6019 108.702 46.9094 109.019L29.892 116.808C28.0356 117.657 25.9636 116.152 26.198 114.124L28.3466 95.5325C28.4341 94.7759 28.188 94.0187 27.6726 93.458L15.0066 79.6803C13.6249 78.1773 14.4163 75.7415 16.4176 75.3377L34.7629 71.6362C35.5095 71.4856 36.1536 71.0176 36.5276 70.3541L45.717 54.0505Z" fill="url(#paint3_linear_11922_8227)"/>
<path d="M47.4292 56.9092C47.6798 56.4645 48.3201 56.4645 48.5707 56.9092L58.0425 73.7138C58.136 73.8796 58.297 73.9966 58.4836 74.0343L77.3927 77.8496C77.893 77.9505 78.0909 78.5595 77.7454 78.9352L64.6903 93.1363C64.5614 93.2765 64.4999 93.4658 64.5217 93.6549L66.7364 112.818C66.795 113.325 66.277 113.701 65.8129 113.488L48.2726 105.461C48.0995 105.381 47.9004 105.381 47.7273 105.461L30.187 113.488C29.7229 113.701 29.2049 113.325 29.2635 112.818L31.4781 93.6549C31.5 93.4658 31.4385 93.2765 31.3096 93.1363L18.2544 78.9352C17.909 78.5595 18.1069 77.9505 18.6072 77.8496L37.5162 74.0343C37.7029 73.9966 37.8639 73.8796 37.9574 73.7138L47.4292 56.9092Z" fill="url(#paint4_linear_11922_8227)"/>
<path d="M47.4293 60.8402C47.6799 60.3956 48.3202 60.3956 48.5708 60.8402L56.7948 75.4311C56.8883 75.597 57.0494 75.714 57.236 75.7516L73.6542 79.0643C74.1545 79.1653 74.3523 79.7742 74.0069 80.15L62.6715 92.4803C62.5426 92.6205 62.4811 92.8098 62.503 92.999L64.4259 109.637C64.4845 110.144 63.9665 110.521 63.5024 110.308L48.2727 103.338C48.0996 103.259 47.9005 103.259 47.7274 103.338L32.4977 110.308C32.0336 110.521 31.5156 110.144 31.5742 109.637L33.4971 92.999C33.519 92.8098 33.4575 92.6205 33.3286 92.4803L21.9932 80.15C21.6478 79.7742 21.8456 79.1653 22.3459 79.0643L38.7641 75.7516C38.9507 75.714 39.1118 75.597 39.2052 75.4311L47.4293 60.8402Z" fill="url(#paint5_linear_11922_8227)"/>
<path d="M219.717 54.0505C220.719 52.272 223.281 52.272 224.283 54.0505L233.472 70.3541C233.846 71.0176 234.491 71.4856 235.237 71.6362L253.582 75.3377C255.584 75.7415 256.375 78.1773 254.993 79.6803L242.327 93.458C241.812 94.0187 241.566 94.7759 241.653 95.5325L243.802 114.124C244.036 116.152 241.964 117.657 240.108 116.808L223.091 109.019C222.398 108.702 221.602 108.702 220.909 109.019L203.892 116.808C202.036 117.657 199.964 116.152 200.198 114.124L202.347 95.5325C202.434 94.7759 202.188 94.0187 201.673 93.458L189.007 79.6803C187.625 78.1773 188.416 75.7415 190.418 75.3377L208.763 71.6362C209.509 71.4856 210.154 71.0176 210.528 70.3541L219.717 54.0505Z" fill="url(#paint6_linear_11922_8227)"/>
<path d="M221.429 56.9092C221.68 56.4645 222.32 56.4645 222.571 56.9092L232.042 73.7138C232.136 73.8796 232.297 73.9966 232.484 74.0343L251.393 77.8496C251.893 77.9505 252.091 78.5595 251.745 78.9352L238.69 93.1363C238.561 93.2765 238.5 93.4658 238.522 93.6549L240.736 112.818C240.795 113.325 240.277 113.701 239.813 113.488L222.273 105.461C222.099 105.381 221.9 105.381 221.727 105.461L204.187 113.488C203.723 113.701 203.205 113.325 203.263 112.818L205.478 93.6549C205.5 93.4658 205.438 93.2765 205.31 93.1363L192.254 78.9352C191.909 78.5595 192.107 77.9505 192.607 77.8496L211.516 74.0343C211.703 73.9966 211.864 73.8796 211.957 73.7138L221.429 56.9092Z" fill="url(#paint7_linear_11922_8227)"/>
<path d="M221.429 60.8402C221.68 60.3956 222.32 60.3956 222.571 60.8402L230.795 75.4311C230.888 75.597 231.049 75.714 231.236 75.7516L247.654 79.0643C248.154 79.1653 248.352 79.7742 248.007 80.15L236.672 92.4803C236.543 92.6205 236.481 92.8098 236.503 92.999L238.426 109.637C238.485 110.144 237.967 110.521 237.502 110.308L222.273 103.338C222.1 103.259 221.901 103.259 221.727 103.338L206.498 110.308C206.034 110.521 205.516 110.144 205.574 109.637L207.497 92.999C207.519 92.8098 207.457 92.6205 207.329 92.4803L195.993 80.15C195.648 79.7742 195.846 79.1653 196.346 79.0643L212.764 75.7516C212.951 75.714 213.112 75.597 213.205 75.4311L221.429 60.8402Z" fill="url(#paint8_linear_11922_8227)"/>
</g>
<path d="M131.515 16.1823C133.045 13.4677 136.955 13.4677 138.485 16.1823L152.511 41.0668C153.081 42.0795 154.064 42.7938 155.204 43.0237L183.205 48.6734C186.259 49.2897 187.467 53.0075 185.358 55.3015L166.026 76.3307C165.239 77.1865 164.864 78.3422 164.997 79.497L168.277 107.873C168.635 110.969 165.472 113.266 162.639 111.97L136.665 100.082C135.608 99.5981 134.392 99.5981 133.335 100.082L107.361 111.97C104.528 113.266 101.365 110.969 101.723 107.873L105.003 79.497C105.136 78.3422 104.761 77.1865 103.974 76.3307L84.6416 55.3015C82.5327 53.0075 83.7407 49.2897 86.7952 48.6734L114.796 43.0237C115.936 42.7938 116.919 42.0795 117.489 41.0668L131.515 16.1823Z" fill="url(#paint9_linear_11922_8227)"/>
<path d="M134.129 20.5456C134.511 19.8669 135.489 19.8669 135.871 20.5456L150.328 46.1947C150.471 46.4479 150.717 46.6264 151.001 46.6839L179.863 52.5073C180.626 52.6613 180.928 53.5908 180.401 54.1643L160.475 75.8397C160.278 76.0536 160.184 76.3425 160.217 76.6312L163.598 105.879C163.687 106.653 162.897 107.228 162.188 106.903L135.416 94.6505C135.152 94.5295 134.848 94.5295 134.584 94.6505L107.812 106.903C107.103 107.228 106.313 106.653 106.402 105.879L109.782 76.6312C109.816 76.3425 109.722 76.0536 109.525 75.8397L89.599 54.1643C89.0717 53.5908 89.3737 52.6613 90.1374 52.5073L118.999 46.6839C119.283 46.6264 119.529 46.4479 119.672 46.1947L134.129 20.5456Z" fill="url(#paint10_linear_11922_8227)"/>
<path d="M134.129 26.5456C134.511 25.8669 135.489 25.8669 135.871 26.5456L148.424 48.8159C148.566 49.0691 148.812 49.2477 149.097 49.3051L174.156 54.3614C174.92 54.5154 175.222 55.4449 174.695 56.0184L157.393 74.8384C157.197 75.0524 157.103 75.3413 157.136 75.63L160.071 101.025C160.161 101.799 159.37 102.374 158.662 102.049L135.416 91.4105C135.152 91.2895 134.848 91.2895 134.584 91.4105L111.338 102.049C110.63 102.374 109.839 101.799 109.929 101.025L112.864 75.63C112.897 75.3413 112.803 75.0524 112.607 74.8384L95.3053 56.0184C94.7781 55.4449 95.0801 54.5154 95.8437 54.3614L120.903 49.3051C121.188 49.2477 121.434 49.0691 121.576 48.8159L134.129 26.5456Z" fill="url(#paint11_linear_11922_8227)"/>
<path d="M45.717 54.0505C46.7194 52.272 49.2806 52.272 50.283 54.0505L59.4724 70.3541C59.8464 71.0176 60.4905 71.4856 61.2371 71.6362L79.5824 75.3377C81.5837 75.7415 82.3751 78.1773 80.9934 79.6803L68.3274 93.458C67.812 94.0187 67.5659 94.7759 67.6534 95.5325L69.802 114.124C70.0364 116.152 67.9644 117.657 66.108 116.808L49.0906 109.019C48.3981 108.702 47.6019 108.702 46.9094 109.019L29.892 116.808C28.0356 117.657 25.9636 116.152 26.198 114.124L28.3466 95.5325C28.4341 94.7759 28.188 94.0187 27.6726 93.458L15.0066 79.6803C13.6249 78.1773 14.4163 75.7415 16.4176 75.3377L34.7629 71.6362C35.5095 71.4856 36.1536 71.0176 36.5276 70.3541L45.717 54.0505Z" fill="url(#paint12_linear_11922_8227)"/>
<path d="M47.4292 56.9092C47.6798 56.4645 48.3201 56.4645 48.5707 56.9092L58.0425 73.7138C58.136 73.8796 58.297 73.9966 58.4836 74.0343L77.3927 77.8496C77.893 77.9505 78.0909 78.5595 77.7454 78.9352L64.6903 93.1363C64.5614 93.2765 64.4999 93.4658 64.5217 93.6549L66.7364 112.818C66.795 113.325 66.277 113.701 65.8129 113.488L48.2726 105.461C48.0995 105.381 47.9004 105.381 47.7273 105.461L30.187 113.488C29.7229 113.701 29.2049 113.325 29.2635 112.818L31.4781 93.6549C31.5 93.4658 31.4385 93.2765 31.3096 93.1363L18.2544 78.9352C17.909 78.5595 18.1069 77.9505 18.6072 77.8496L37.5162 74.0343C37.7029 73.9966 37.8639 73.8796 37.9574 73.7138L47.4292 56.9092Z" fill="url(#paint13_linear_11922_8227)"/>
<path d="M47.4293 60.8402C47.6799 60.3956 48.3202 60.3956 48.5708 60.8402L56.7948 75.4311C56.8883 75.597 57.0494 75.714 57.236 75.7516L73.6542 79.0643C74.1545 79.1653 74.3523 79.7742 74.0069 80.15L62.6715 92.4803C62.5426 92.6205 62.4811 92.8098 62.503 92.999L64.4259 109.637C64.4845 110.144 63.9665 110.521 63.5024 110.308L48.2727 103.338C48.0996 103.259 47.9005 103.259 47.7274 103.338L32.4977 110.308C32.0336 110.521 31.5156 110.144 31.5742 109.637L33.4971 92.999C33.519 92.8098 33.4575 92.6205 33.3286 92.4803L21.9932 80.15C21.6478 79.7742 21.8456 79.1653 22.3459 79.0643L38.7641 75.7516C38.9507 75.714 39.1118 75.597 39.2052 75.4311L47.4293 60.8402Z" fill="url(#paint14_linear_11922_8227)"/>
<path d="M219.717 54.0505C220.719 52.272 223.281 52.272 224.283 54.0505L233.472 70.3541C233.846 71.0176 234.491 71.4856 235.237 71.6362L253.582 75.3377C255.584 75.7415 256.375 78.1773 254.993 79.6803L242.327 93.458C241.812 94.0187 241.566 94.7759 241.653 95.5325L243.802 114.124C244.036 116.152 241.964 117.657 240.108 116.808L223.091 109.019C222.398 108.702 221.602 108.702 220.909 109.019L203.892 116.808C202.036 117.657 199.964 116.152 200.198 114.124L202.347 95.5325C202.434 94.7759 202.188 94.0187 201.673 93.458L189.007 79.6803C187.625 78.1773 188.416 75.7415 190.418 75.3377L208.763 71.6362C209.509 71.4856 210.154 71.0176 210.528 70.3541L219.717 54.0505Z" fill="url(#paint15_linear_11922_8227)"/>
<path d="M221.429 56.9092C221.68 56.4645 222.32 56.4645 222.571 56.9092L232.042 73.7138C232.136 73.8796 232.297 73.9966 232.484 74.0343L251.393 77.8496C251.893 77.9505 252.091 78.5595 251.745 78.9352L238.69 93.1363C238.561 93.2765 238.5 93.4658 238.522 93.6549L240.736 112.818C240.795 113.325 240.277 113.701 239.813 113.488L222.273 105.461C222.099 105.381 221.9 105.381 221.727 105.461L204.187 113.488C203.723 113.701 203.205 113.325 203.263 112.818L205.478 93.6549C205.5 93.4658 205.438 93.2765 205.31 93.1363L192.254 78.9352C191.909 78.5595 192.107 77.9505 192.607 77.8496L211.516 74.0343C211.703 73.9966 211.864 73.8796 211.957 73.7138L221.429 56.9092Z" fill="url(#paint16_linear_11922_8227)"/>
<path d="M221.429 60.8402C221.68 60.3956 222.32 60.3956 222.571 60.8402L230.795 75.4311C230.888 75.597 231.049 75.714 231.236 75.7516L247.654 79.0643C248.154 79.1653 248.352 79.7742 248.007 80.15L236.672 92.4803C236.543 92.6205 236.481 92.8098 236.503 92.999L238.426 109.637C238.485 110.144 237.967 110.521 237.502 110.308L222.273 103.338C222.1 103.259 221.901 103.259 221.727 103.338L206.498 110.308C206.034 110.521 205.516 110.144 205.574 109.637L207.497 92.999C207.519 92.8098 207.457 92.6205 207.329 92.4803L195.993 80.15C195.648 79.7742 195.846 79.1653 196.346 79.0643L212.764 75.7516C212.951 75.714 213.112 75.597 213.205 75.4311L221.429 60.8402Z" fill="url(#paint17_linear_11922_8227)"/>
<defs>
<filter id="filter0_f_11922_8227" x="0.312988" y="0.146362" width="269.374" height="130.903" filterUnits="userSpaceOnUse" color-interpolation-filters="sRGB">
<feFlood flood-opacity="0" result="BackgroundImageFix"/>
<feBlend mode="normal" in="SourceGraphic" in2="BackgroundImageFix" result="shape"/>
<feGaussianBlur stdDeviation="7" result="effect1_foregroundBlur_11922_8227"/>
</filter>
<linearGradient id="paint0_linear_11922_8227" x1="135" y1="10" x2="135" y2="126" gradientUnits="userSpaceOnUse">
<stop stop-color="#FFBD01"/>
<stop offset="0.445" stop-color="#FFF500"/>
<stop offset="1" stop-color="#D06C01"/>
</linearGradient>
<linearGradient id="paint1_linear_11922_8227" x1="135" y1="19" x2="135" y2="117" gradientUnits="userSpaceOnUse">
<stop stop-color="#F87700"/>
<stop offset="0.445" stop-color="#FFD600"/>
<stop offset="1" stop-color="#FFE600"/>
</linearGradient>
<linearGradient id="paint2_linear_11922_8227" x1="135" y1="25" x2="135" y2="111" gradientUnits="userSpaceOnUse">
<stop stop-color="#F8DF00"/>
<stop offset="0.445" stop-color="#F9A82D"/>
<stop offset="1" stop-color="#FFC24B"/>
</linearGradient>
<linearGradient id="paint3_linear_11922_8227" x1="48" y1="50" x2="48" y2="126" gradientUnits="userSpaceOnUse">
<stop stop-color="#FFBD01"/>
<stop offset="0.445" stop-color="#FFF500"/>
<stop offset="1" stop-color="#D06C01"/>
</linearGradient>
<linearGradient id="paint4_linear_11922_8227" x1="47.9999" y1="55.8965" x2="47.9999" y2="120.103" gradientUnits="userSpaceOnUse">
<stop stop-color="#F87700"/>
<stop offset="0.445" stop-color="#FFD600"/>
<stop offset="1" stop-color="#FFE600"/>
</linearGradient>
<linearGradient id="paint5_linear_11922_8227" x1="48" y1="59.8276" x2="48" y2="116.172" gradientUnits="userSpaceOnUse">
<stop stop-color="#F8DF00"/>
<stop offset="0.445" stop-color="#F9A82D"/>
<stop offset="1" stop-color="#FFC24B"/>
</linearGradient>
<linearGradient id="paint6_linear_11922_8227" x1="222" y1="50" x2="222" y2="126" gradientUnits="userSpaceOnUse">
<stop stop-color="#FFBD01"/>
<stop offset="0.445" stop-color="#FFF500"/>
<stop offset="1" stop-color="#D06C01"/>
</linearGradient>
<linearGradient id="paint7_linear_11922_8227" x1="222" y1="55.8965" x2="222" y2="120.103" gradientUnits="userSpaceOnUse">
<stop stop-color="#F87700"/>
<stop offset="0.445" stop-color="#FFD600"/>
<stop offset="1" stop-color="#FFE600"/>
</linearGradient>
<linearGradient id="paint8_linear_11922_8227" x1="222" y1="59.8276" x2="222" y2="116.172" gradientUnits="userSpaceOnUse">
<stop stop-color="#F8DF00"/>
<stop offset="0.445" stop-color="#F9A82D"/>
<stop offset="1" stop-color="#FFC24B"/>
</linearGradient>
<linearGradient id="paint9_linear_11922_8227" x1="135" y1="10" x2="135" y2="126" gradientUnits="userSpaceOnUse">
<stop stop-color="#FFBD01"/>
<stop offset="0.445" stop-color="#FFF500"/>
<stop offset="1" stop-color="#D06C01"/>
</linearGradient>
<linearGradient id="paint10_linear_11922_8227" x1="135" y1="19" x2="135" y2="117" gradientUnits="userSpaceOnUse">
<stop stop-color="#F87700"/>
<stop offset="0.445" stop-color="#FFD600"/>
<stop offset="1" stop-color="#FFE600"/>
</linearGradient>
<linearGradient id="paint11_linear_11922_8227" x1="135" y1="25" x2="135" y2="111" gradientUnits="userSpaceOnUse">
<stop stop-color="#F8DF00"/>
<stop offset="0.445" stop-color="#F9A82D"/>
<stop offset="1" stop-color="#FFC24B"/>
</linearGradient>
<linearGradient id="paint12_linear_11922_8227" x1="48" y1="50" x2="48" y2="126" gradientUnits="userSpaceOnUse">
<stop stop-color="#FFBD01"/>
<stop offset="0.445" stop-color="#FFF500"/>
<stop offset="1" stop-color="#D06C01"/>
</linearGradient>
<linearGradient id="paint13_linear_11922_8227" x1="47.9999" y1="55.8965" x2="47.9999" y2="120.103" gradientUnits="userSpaceOnUse">
<stop stop-color="#F87700"/>
<stop offset="0.445" stop-color="#FFD600"/>
<stop offset="1" stop-color="#FFE600"/>
</linearGradient>
<linearGradient id="paint14_linear_11922_8227" x1="48" y1="59.8276" x2="48" y2="116.172" gradientUnits="userSpaceOnUse">
<stop stop-color="#F8DF00"/>
<stop offset="0.445" stop-color="#F9A82D"/>
<stop offset="1" stop-color="#FFC24B"/>
</linearGradient>
<linearGradient id="paint15_linear_11922_8227" x1="222" y1="50" x2="222" y2="126" gradientUnits="userSpaceOnUse">
<stop stop-color="#FFBD01"/>
<stop offset="0.445" stop-color="#FFF500"/>
<stop offset="1" stop-color="#D06C01"/>
</linearGradient>
<linearGradient id="paint16_linear_11922_8227" x1="222" y1="55.8965" x2="222" y2="120.103" gradientUnits="userSpaceOnUse">
<stop stop-color="#F87700"/>
<stop offset="0.445" stop-color="#FFD600"/>
<stop offset="1" stop-color="#FFE600"/>
</linearGradient>
<linearGradient id="paint17_linear_11922_8227" x1="222" y1="59.8276" x2="222" y2="116.172" gradientUnits="userSpaceOnUse">
<stop stop-color="#F8DF00"/>
<stop offset="0.445" stop-color="#F9A82D"/>
<stop offset="1" stop-color="#FFC24B"/>
</linearGradient>
</defs>
</svg>
