<svg width="134" height="134" viewBox="0 0 134 134" fill="none" xmlns="http://www.w3.org/2000/svg">
<circle cx="67" cy="67" r="62" fill="url(#paint0_linear_13922_5)" stroke="#3B1EA0" stroke-width="10"/>
<path d="M60.619 54.364L56.245 62.824V67H53.167V62.824L48.793 54.364H52.285L54.733 59.656L57.163 54.364H60.619ZM66.4312 67.144C65.4472 67.144 64.5592 66.934 63.7672 66.514C62.9872 66.094 62.3692 65.494 61.9132 64.714C61.4692 63.934 61.2472 63.022 61.2472 61.978C61.2472 60.946 61.4752 60.04 61.9312 59.26C62.3872 58.468 63.0112 57.862 63.8032 57.442C64.5952 57.022 65.4832 56.812 66.4672 56.812C67.4512 56.812 68.3392 57.022 69.1312 57.442C69.9232 57.862 70.5472 58.468 71.0032 59.26C71.4592 60.04 71.6872 60.946 71.6872 61.978C71.6872 63.01 71.4532 63.922 70.9852 64.714C70.5292 65.494 69.8992 66.094 69.0952 66.514C68.3032 66.934 67.4152 67.144 66.4312 67.144ZM66.4312 64.48C67.0192 64.48 67.5172 64.264 67.9252 63.832C68.3452 63.4 68.5552 62.782 68.5552 61.978C68.5552 61.174 68.3512 60.556 67.9432 60.124C67.5472 59.692 67.0552 59.476 66.4672 59.476C65.8672 59.476 65.3692 59.692 64.9732 60.124C64.5772 60.544 64.3792 61.162 64.3792 61.978C64.3792 62.782 64.5712 63.4 64.9552 63.832C65.3512 64.264 65.8432 64.48 66.4312 64.48ZM83.2381 56.956V67H80.1601V65.632C79.8481 66.076 79.4221 66.436 78.8821 66.712C78.3541 66.976 77.7661 67.108 77.1181 67.108C76.3501 67.108 75.6721 66.94 75.0841 66.604C74.4961 66.256 74.0401 65.758 73.7161 65.11C73.3921 64.462 73.2301 63.7 73.2301 62.824V56.956H76.2901V62.41C76.2901 63.082 76.4641 63.604 76.8121 63.976C77.1601 64.348 77.6281 64.534 78.2161 64.534C78.8161 64.534 79.2901 64.348 79.6381 63.976C79.9861 63.604 80.1601 63.082 80.1601 62.41V56.956H83.2381ZM37.8139 85L35.1859 80.23H34.4479V85H31.3699V72.364H36.5359C37.5319 72.364 38.3779 72.538 39.0739 72.886C39.7819 73.234 40.3099 73.714 40.6579 74.326C41.0059 74.926 41.1799 75.598 41.1799 76.342C41.1799 77.182 40.9399 77.932 40.4599 78.592C39.9919 79.252 39.2959 79.72 38.3719 79.996L41.2879 85H37.8139ZM34.4479 78.052H36.3559C36.9199 78.052 37.3399 77.914 37.6159 77.638C37.9039 77.362 38.0479 76.972 38.0479 76.468C38.0479 75.988 37.9039 75.61 37.6159 75.334C37.3399 75.058 36.9199 74.92 36.3559 74.92H34.4479V78.052ZM52.5801 79.816C52.5801 80.104 52.5621 80.404 52.5261 80.716H45.5601C45.6081 81.34 45.8061 81.82 46.1541 82.156C46.5141 82.48 46.9521 82.642 47.4681 82.642C48.2361 82.642 48.7701 82.318 49.0701 81.67H52.3461C52.1781 82.33 51.8721 82.924 51.4281 83.452C50.9961 83.98 50.4501 84.394 49.7901 84.694C49.1301 84.994 48.3921 85.144 47.5761 85.144C46.5921 85.144 45.7161 84.934 44.9481 84.514C44.1801 84.094 43.5801 83.494 43.1481 82.714C42.7161 81.934 42.5001 81.022 42.5001 79.978C42.5001 78.934 42.7101 78.022 43.1301 77.242C43.5621 76.462 44.1621 75.862 44.9301 75.442C45.6981 75.022 46.5801 74.812 47.5761 74.812C48.5481 74.812 49.4121 75.016 50.1681 75.424C50.9241 75.832 51.5121 76.414 51.9321 77.17C52.3641 77.926 52.5801 78.808 52.5801 79.816ZM49.4301 79.006C49.4301 78.478 49.2501 78.058 48.8901 77.746C48.5301 77.434 48.0801 77.278 47.5401 77.278C47.0241 77.278 46.5861 77.428 46.2261 77.728C45.8781 78.028 45.6621 78.454 45.5781 79.006H49.4301ZM53.5919 79.978C53.5919 78.934 53.8019 78.022 54.2219 77.242C54.6539 76.462 55.2479 75.862 56.0039 75.442C56.7719 75.022 57.6479 74.812 58.6319 74.812C59.8919 74.812 60.9419 75.142 61.7819 75.802C62.6339 76.462 63.1919 77.392 63.4559 78.592H60.1799C59.9039 77.824 59.3699 77.44 58.5779 77.44C58.0139 77.44 57.5639 77.662 57.2279 78.106C56.8919 78.538 56.7239 79.162 56.7239 79.978C56.7239 80.794 56.8919 81.424 57.2279 81.868C57.5639 82.3 58.0139 82.516 58.5779 82.516C59.3699 82.516 59.9039 82.132 60.1799 81.364H63.4559C63.1919 82.54 62.6339 83.464 61.7819 84.136C60.9299 84.808 59.8799 85.144 58.6319 85.144C57.6479 85.144 56.7719 84.934 56.0039 84.514C55.2479 84.094 54.6539 83.494 54.2219 82.714C53.8019 81.934 53.5919 81.022 53.5919 79.978ZM66.6503 73.912C66.1103 73.912 65.6663 73.756 65.3183 73.444C64.9823 73.12 64.8143 72.724 64.8143 72.256C64.8143 71.776 64.9823 71.38 65.3183 71.068C65.6663 70.744 66.1103 70.582 66.6503 70.582C67.1783 70.582 67.6103 70.744 67.9463 71.068C68.2943 71.38 68.4683 71.776 68.4683 72.256C68.4683 72.724 68.2943 73.12 67.9463 73.444C67.6103 73.756 67.1783 73.912 66.6503 73.912ZM68.1803 74.956V85H65.1023V74.956H68.1803ZM79.8789 79.816C79.8789 80.104 79.8609 80.404 79.8249 80.716H72.8589C72.9069 81.34 73.1049 81.82 73.4529 82.156C73.8129 82.48 74.2509 82.642 74.7669 82.642C75.5349 82.642 76.0689 82.318 76.3689 81.67H79.6449C79.4769 82.33 79.1709 82.924 78.7269 83.452C78.2949 83.98 77.7489 84.394 77.0889 84.694C76.4289 84.994 75.6909 85.144 74.8749 85.144C73.8909 85.144 73.0149 84.934 72.2469 84.514C71.4789 84.094 70.8789 83.494 70.4469 82.714C70.0149 81.934 69.7989 81.022 69.7989 79.978C69.7989 78.934 70.0089 78.022 70.4289 77.242C70.8609 76.462 71.4609 75.862 72.2289 75.442C72.9969 75.022 73.8789 74.812 74.8749 74.812C75.8469 74.812 76.7109 75.016 77.4669 75.424C78.2229 75.832 78.8109 76.414 79.2309 77.17C79.6629 77.926 79.8789 78.808 79.8789 79.816ZM76.7289 79.006C76.7289 78.478 76.5489 78.058 76.1889 77.746C75.8289 77.434 75.3789 77.278 74.8389 77.278C74.3229 77.278 73.8849 77.428 73.5249 77.728C73.1769 78.028 72.9609 78.454 72.8769 79.006H76.7289ZM86.0207 82.12L88.1987 74.956H91.4747L87.9107 85H84.1127L80.5487 74.956H83.8427L86.0207 82.12ZM102.238 79.816C102.238 80.104 102.22 80.404 102.184 80.716H95.2183C95.2663 81.34 95.4643 81.82 95.8123 82.156C96.1723 82.48 96.6103 82.642 97.1263 82.642C97.8943 82.642 98.4283 82.318 98.7283 81.67H102.004C101.836 82.33 101.53 82.924 101.086 83.452C100.654 83.98 100.108 84.394 99.4483 84.694C98.7883 84.994 98.0503 85.144 97.2343 85.144C96.2503 85.144 95.3743 84.934 94.6063 84.514C93.8383 84.094 93.2383 83.494 92.8063 82.714C92.3743 81.934 92.1583 81.022 92.1583 79.978C92.1583 78.934 92.3683 78.022 92.7883 77.242C93.2203 76.462 93.8203 75.862 94.5883 75.442C95.3563 75.022 96.2383 74.812 97.2343 74.812C98.2063 74.812 99.0703 75.016 99.8263 75.424C100.582 75.832 101.17 76.414 101.59 77.17C102.022 77.926 102.238 78.808 102.238 79.816ZM99.0883 79.006C99.0883 78.478 98.9083 78.058 98.5483 77.746C98.1883 77.434 97.7383 77.278 97.1983 77.278C96.6823 77.278 96.2443 77.428 95.8843 77.728C95.5363 78.028 95.3203 78.454 95.2363 79.006H99.0883Z" fill="white"/>
<g filter="url(#filter0_d_13922_5)">
<path fill-rule="evenodd" clip-rule="evenodd" d="M48.1695 42C45.8661 42 44.422 39.5116 45.5648 37.5116L64.3953 4.55828C65.547 2.54284 68.453 2.54284 69.6047 4.55828L88.4352 37.5116C89.578 39.5116 88.1339 42 85.8305 42H48.1695Z" fill="url(#paint1_linear_13922_5)"/>
<path d="M48.1695 41C46.6339 41 45.6712 39.341 46.4331 38.0077L65.2635 5.05442C66.0313 3.71079 67.9687 3.71079 68.7365 5.05442L87.5669 38.0077C88.3288 39.341 87.3661 41 85.8305 41H48.1695Z" stroke="url(#paint2_linear_13922_5)" stroke-width="2"/>
</g>
<path fill-rule="evenodd" clip-rule="evenodd" d="M52.7232 35C51.9554 35 51.474 34.1705 51.8549 33.5039L66.1318 8.51943C66.5157 7.84761 67.4843 7.84761 67.8682 8.51942L82.1451 33.5039C82.526 34.1705 82.0446 35 81.2768 35H52.7232Z" fill="url(#paint3_linear_13922_5)"/>
<defs>
<filter id="filter0_d_13922_5" x="45.165" y="3.04669" width="43.6699" height="39.9533" filterUnits="userSpaceOnUse" color-interpolation-filters="sRGB">
<feFlood flood-opacity="0" result="BackgroundImageFix"/>
<feColorMatrix in="SourceAlpha" type="matrix" values="0 0 0 0 0 0 0 0 0 0 0 0 0 0 0 0 0 0 127 0" result="hardAlpha"/>
<feOffset dy="1"/>
<feComposite in2="hardAlpha" operator="out"/>
<feColorMatrix type="matrix" values="0 0 0 0 0.0626351 0 0 0 0 0.265278 0 0 0 0 0.166448 0 0 0 1 0"/>
<feBlend mode="normal" in2="BackgroundImageFix" result="effect1_dropShadow_13922_5"/>
<feBlend mode="normal" in="SourceGraphic" in2="effect1_dropShadow_13922_5" result="shape"/>
</filter>
<linearGradient id="paint0_linear_13922_5" x1="67" y1="10" x2="67" y2="124" gradientUnits="userSpaceOnUse">
<stop stop-color="#2CB4D2"/>
<stop offset="1" stop-color="#512CD2"/>
</linearGradient>
<linearGradient id="paint1_linear_13922_5" x1="67" y1="0" x2="67" y2="42" gradientUnits="userSpaceOnUse">
<stop stop-color="#0AFE87"/>
<stop offset="1" stop-color="#00D26C"/>
</linearGradient>
<linearGradient id="paint2_linear_13922_5" x1="67" y1="0" x2="67" y2="42" gradientUnits="userSpaceOnUse">
<stop stop-color="#49FF5B"/>
<stop offset="1" stop-color="#007E41"/>
</linearGradient>
<linearGradient id="paint3_linear_13922_5" x1="67" y1="7" x2="67" y2="35" gradientUnits="userSpaceOnUse">
<stop stop-color="white"/>
<stop offset="1" stop-color="white" stop-opacity="0"/>
</linearGradient>
</defs>
</svg>
