<svg width="393" height="452" viewBox="0 0 393 452" fill="none" xmlns="http://www.w3.org/2000/svg">
<g filter="url(#filter0_f_13922_6)">
<circle cx="197" cy="223" r="160" fill="#2CB4D2"/>
</g>
<g style="mix-blend-mode:overlay">
<path fill-rule="evenodd" clip-rule="evenodd" d="M218.895 18H175.105L184.459 195.724L65.4036 63.4399L34.4398 94.4037L166.724 213.459L-11 204.105L-11 247.895L166.724 238.541L34.4399 357.596L65.4037 388.56L184.459 256.276L175.105 434H218.895L209.541 256.276L328.596 388.56L359.56 357.596L227.276 238.541L405 247.895V204.105L227.276 213.459L359.56 94.4037L328.596 63.4399L209.541 195.724L218.895 18Z" fill="url(#paint0_radial_13922_6)"/>
</g>
<g style="mix-blend-mode:overlay">
<path fill-rule="evenodd" clip-rule="evenodd" d="M200.276 16.8765L156.661 20.7779L181.812 196.962L51.4436 75.8109L23.3616 109.41L165.727 216.206L-12.1236 222.724L-8.22214 266.339L167.961 241.188L46.8109 371.556L80.4103 399.638L187.206 257.273L193.724 435.124L237.339 431.222L212.188 255.039L342.556 376.189L370.638 342.59L228.273 235.794L406.123 229.276L402.222 185.661L226.039 210.812L347.189 80.4437L313.59 52.3618L206.793 194.727L200.276 16.8765Z" fill="url(#paint1_radial_13922_6)"/>
</g>
<g style="mix-blend-mode:overlay">
<path fill-rule="evenodd" clip-rule="evenodd" d="M234.075 20.1631L190.403 16.9549L186.711 194.886L77.6672 54.2353L44.518 82.8473L167.724 211.275L-8.83694 188.925L-12.0452 232.597L165.886 236.289L25.2352 345.333L53.8473 378.482L182.275 255.276L159.925 431.837L203.597 435.045L207.289 257.114L316.333 397.765L349.482 369.153L226.276 240.725L402.837 263.075L406.045 219.403L228.114 215.711L368.765 106.667L340.153 73.5182L211.725 196.724L234.075 20.1631Z" fill="url(#paint2_radial_13922_6)"/>
</g>
<defs>
<filter id="filter0_f_13922_6" x="-7" y="19" width="408" height="408" filterUnits="userSpaceOnUse" color-interpolation-filters="sRGB">
<feFlood flood-opacity="0" result="BackgroundImageFix"/>
<feBlend mode="normal" in="SourceGraphic" in2="BackgroundImageFix" result="shape"/>
<feGaussianBlur stdDeviation="22" result="effect1_foregroundBlur_13922_6"/>
</filter>
<radialGradient id="paint0_radial_13922_6" cx="0" cy="0" r="1" gradientUnits="userSpaceOnUse" gradientTransform="translate(197 226) rotate(90) scale(208)">
<stop stop-color="white"/>
<stop offset="1" stop-color="white" stop-opacity="0"/>
</radialGradient>
<radialGradient id="paint1_radial_13922_6" cx="0" cy="0" r="1" gradientUnits="userSpaceOnUse" gradientTransform="translate(197 226) rotate(84.8885) scale(208)">
<stop stop-color="white"/>
<stop offset="1" stop-color="white" stop-opacity="0"/>
</radialGradient>
<radialGradient id="paint2_radial_13922_6" cx="0" cy="0" r="1" gradientUnits="userSpaceOnUse" gradientTransform="translate(197 226) rotate(94.2016) scale(208)">
<stop stop-color="white"/>
<stop offset="1" stop-color="white" stop-opacity="0"/>
</radialGradient>
</defs>
</svg>
