<svg width="70" height="30" viewBox="0 0 70 30" fill="none" xmlns="http://www.w3.org/2000/svg">
<rect width="70" height="30" rx="8" fill="#493395"/>
<g clip-path="url(#clip0_11922_8030)">
<path d="M16.3281 7.04375L18.3188 9.03125L12.8844 11.3687L18.6313 17.1156L20.9688 11.6812L22.9563 13.6719L24.0625 5.9375L16.3281 7.04375Z" fill="url(#paint0_linear_11922_8030)"/>
<path d="M11.3687 12.8844L9.03125 18.3188L7.04375 16.3281L5.9375 24.0625L13.6719 22.9563L11.6812 20.9688L17.1156 18.6313L11.3687 12.8844Z" fill="url(#paint1_linear_11922_8030)"/>
</g>
<path d="M30.72 15.512C30.72 14.128 30.952 13.048 31.416 12.272C31.888 11.488 32.696 11.096 33.84 11.096C34.984 11.096 35.788 11.488 36.252 12.272C36.724 13.048 36.96 14.128 36.96 15.512C36.96 16.912 36.724 18.008 36.252 18.8C35.788 19.584 34.984 19.976 33.84 19.976C32.696 19.976 31.888 19.584 31.416 18.8C30.952 18.008 30.72 16.912 30.72 15.512ZM35.616 15.512C35.616 14.864 35.572 14.316 35.484 13.868C35.404 13.42 35.236 13.056 34.98 12.776C34.724 12.488 34.344 12.344 33.84 12.344C33.336 12.344 32.956 12.488 32.7 12.776C32.444 13.056 32.272 13.42 32.184 13.868C32.104 14.316 32.064 14.864 32.064 15.512C32.064 16.184 32.104 16.748 32.184 17.204C32.264 17.66 32.432 18.028 32.688 18.308C32.952 18.588 33.336 18.728 33.84 18.728C34.344 18.728 34.724 18.588 34.98 18.308C35.244 18.028 35.416 17.66 35.496 17.204C35.576 16.748 35.616 16.184 35.616 15.512ZM46.1447 8.672L42.8807 22.1H41.5367L44.7887 8.672H46.1447ZM50.6379 18.176V17.144L54.6699 11.36H56.3259V16.988H57.4419V18.176H56.3259V20H54.9819V18.176H50.6379ZM55.0419 12.752L52.2099 16.988H55.0419V12.752Z" fill="white"/>
<defs>
<linearGradient id="paint0_linear_11922_8030" x1="4.83127" y1="25.3409" x2="23.446" y2="6.50969" gradientUnits="userSpaceOnUse">
<stop offset="0.133" stop-color="#0AFE87"/>
<stop offset="0.477" stop-color="#6359E3"/>
<stop offset="1" stop-color="#5BCBFA"/>
</linearGradient>
<linearGradient id="paint1_linear_11922_8030" x1="4.7775" y1="25.2875" x2="23.3922" y2="6.45627" gradientUnits="userSpaceOnUse">
<stop offset="0.133" stop-color="#0AFE87"/>
<stop offset="0.477" stop-color="#6359E3"/>
<stop offset="1" stop-color="#5BCBFA"/>
</linearGradient>
<clipPath id="clip0_11922_8030">
<rect width="20" height="20" fill="white" transform="translate(5 5)"/>
</clipPath>
</defs>
</svg>
